# xmcd
#
# Track frame offsets: 
#        150
#        13106
#        28862
#        53355
#        71261
#        91367
#        108865
#        121197
#        143072
#        166690
#        181599
#        188652
#        204506
#        221376
#        246188
#        257557
#
# Disc length: 3736 seconds
#
# Revision: 9
# Processed by: cddbd v1.5.2PL0 Copyright (c) Steve Scherf et al.
# Submitted via: ExactAudioCopy v1.0b1
#
DISCID=c60e9610
DTITLE=Brad Paisley - Play: The Guitar Album
DYEAR=2008
DGENRE=Country
TTITLE0=Huckleberry Jam
TTITLE1=Turf's Up
TTITLE2=Start A Band (Duet With Keith Urban)
TTITLE3=Kim
TTITLE4=Departure
TTITLE5=Come On In (Featuring Buck Owens)
TTITLE6=Kentucky Jelly
TTITLE7=Playing With Fire
TTITLE8=More Than Just This Song (Featuring Steve Wariner)
TTITLE9=Les Is More
TTITLE10=Pre-Cluster Cluster Pluck (Prelude)
TTITLE11=Cluster Pluck (Featuring James Burton, Vince Gill, Albert Lee
TTITLE11=, John Jorgenson, Brent Mason, Redd Volkaert And Steve Warine
TTITLE11=r)
TTITLE12=Cliffs Of Rock City
TTITLE13=Let The Good Times Roll (Featuring B.B. King)
TTITLE14=What A Friend We Have In Jesus
TTITLE15=Waitin' On A Woman (With Andy Griffith)
EXTD=Corrected artist, annotated with special guests.\nEdit 2: Fixed a
EXTD=rtist messup by above edit, album title, added Urban.
EXTT0=
EXTT1=
EXTT2=
EXTT3=
EXTT4=
EXTT5=
EXTT6=
EXTT7=
EXTT8=
EXTT9=
EXTT10=
EXTT11=
EXTT12=
EXTT13=
EXTT14=
EXTT15=
PLAYORDER=
